<svg width="575.4124633789062px" height="128px" xmlns="http://www.w3.org/2000/svg" viewBox="-37.70623168945309 11 575.4124633789062 128" style="background: rgba(0, 0, 0, 0);" preserveAspectRatio="xMidYMid"><defs><filter id="editing-neon" x="-100%" y="-100%" width="300%" height="300%"><feFlood flood-color="#00ff2f" result="flood"></feFlood><feComposite operator="in" in="flood" in2="SourceAlpha" result="color"></feComposite><feFlood flood-color="#00ff2f" result="flood2"></feFlood><feComposite operator="in" in="flood2" in2="SourceAlpha" result="color2"></feComposite><feMorphology operator="dilate" radius="2" in="color" result="dilate"></feMorphology><feGaussianBlur stdDeviation="6" in="color" result="blur1"></feGaussianBlur><feGaussianBlur stdDeviation="2.5" in="color" result="blur2"></feGaussianBlur><feGaussianBlur stdDeviation="1" in="SourceAlpha" result="blur3"></feGaussianBlur><feGaussianBlur stdDeviation="6" in="dilate" result="blur4"></feGaussianBlur><feConvolveMatrix in="color2" result="conv" order="3,3" divisor="1" kernelMatrix="1 1 1  1 1 1  1 1 1"></feConvolveMatrix><feMerge><feMergeNode in="blur1"></feMergeNode><feMergeNode in="blur2"></feMergeNode><feMergeNode in="blur4"></feMergeNode><feMergeNode in="blur3"></feMergeNode><feMergeNode in="blur3"></feMergeNode><feMergeNode in="blur3"></feMergeNode><feMergeNode in="blur3"></feMergeNode><feMergeNode in="conv"></feMergeNode><feMergeNode in="SourceGraphic"></feMergeNode></feMerge></filter></defs><g filter="url(#editing-neon)"><g transform="translate(47.564991891384125, 106.61999893188477)"><path d="M45.29-28.22L45.29-28.22L45.29-28.22Q45.29 0.75 13.87 0.75L13.87 0.75L13.87 0.75Q8.84 0.75 0.54-0.48L0.54-0.48L8.16-40.66L8.16-40.66Q8.70-43.38 9.04-44.95L9.04-44.95L9.04-44.95Q19.38-45.70 23.97-45.70L23.97-45.70L23.97-45.70Q28.56-45.70 32.78-44.74L32.78-44.74L32.78-44.74Q36.99-43.79 39.78-41.68L39.78-41.68L39.78-41.68Q45.29-37.54 45.29-28.22ZM31.28-30.74L31.28-30.74L31.28-30.74Q31.28-40.87 24.00-40.87L24.00-40.87L23.32-40.87L23.32-40.87Q22.98-40.87 22.64-40.80L22.64-40.80L15.64-4.28L15.64-4.28Q15.91-4.15 16.18-4.15L16.18-4.15L16.73-4.15L16.73-4.15Q19.24-4.15 21.86-5.71L21.86-5.71L21.86-5.71Q24.48-7.28 26.52-10.47L26.52-10.47L26.52-10.47Q31.28-17.88 31.28-30.74ZM39.30 8.09L39.30 8.09L39.30 8.09Q42.84 7.82 45.42 3.40L45.42 3.40L45.42 3.40Q47.40 0 48.69-6.26L48.69-6.26L54.20-34.68L67.86-36.04L62.08-6.26L62.08-6.26Q59.84 5.10 56.37 8.84L56.37 8.84L56.37 8.84Q54.54 10.88 52.16 11.56L52.16 11.56L52.16 11.56Q49.78 12.24 47.06 12.24L47.06 12.24L47.06 12.24Q41.34 12.24 39.30 8.09ZM55.28-44.13L55.28-44.13L55.28-44.13Q55.28-46.78 57.49-48.21L57.49-48.21L57.49-48.21Q59.70-49.64 62.90-49.64L62.90-49.64L62.90-49.64Q66.10-49.64 68.03-48.21L68.03-48.21L68.03-48.21Q69.97-46.78 69.97-44.13L69.97-44.13L69.97-44.13Q69.97-41.48 67.83-40.12L67.83-40.12L67.83-40.12Q65.69-38.76 62.49-38.76L62.49-38.76L62.49-38.76Q59.30-38.76 57.29-40.12L57.29-40.12L57.29-40.12Q55.28-41.48 55.28-44.13ZM73.27-2.04L73.27-2.04L73.27-2.04Q71.67-3.81 70.96-6.60L70.96-6.60L70.96-6.60Q70.24-9.38 70.24-13.94L70.24-13.94L70.24-13.94Q70.24-18.50 71.81-22.64L71.81-22.64L71.81-22.64Q73.37-26.79 76.23-29.78L76.23-29.78L76.23-29.78Q82.08-36.04 91.73-36.04L91.73-36.04L91.73-36.04Q95.20-36.04 97.72-34.88L97.72-34.88L109.34-36.04L104.31-9.52L104.31-9.52Q104.11-8.70 104.11-7.21L104.11-7.21L104.11-7.21Q104.11-5.71 105.03-4.76L105.03-4.76L105.03-4.76Q105.94-3.81 107.30-3.67L107.30-3.67L107.30-3.67Q106.62-1.36 104.14 0L104.14 0L104.14 0Q101.66 1.36 98.87 1.36L98.87 1.36L98.87 1.36Q96.08 1.36 94.21 0.31L94.21 0.31L94.21 0.31Q92.34-0.75 91.80-2.52L91.80-2.52L91.80-2.52Q90.71-0.82 88.40 0.27L88.40 0.27L88.40 0.27Q86.09 1.36 82.99 1.36L82.99 1.36L82.99 1.36Q79.90 1.36 77.38 0.54L77.38 0.54L77.38 0.54Q74.87-0.27 73.27-2.04ZM87.62-29.65L87.62-29.65L87.62-29.65Q86.84-28.42 86.16-26.35L86.16-26.35L86.16-26.35Q85.48-24.28 84.35-18.73L84.35-18.73L84.35-18.73Q83.23-13.19 83.23-9.25L83.23-9.25L83.23-9.25Q83.23-5.30 83.84-4.15L83.84-4.15L83.84-4.15Q84.46-2.99 85.54-2.99L85.54-2.99L85.54-2.99Q87.72-2.99 89.32-5.07L89.32-5.07L89.32-5.07Q90.92-7.14 91.53-10.81L91.53-10.81L95.13-30.74L95.13-30.74Q93.70-31.96 92.04-31.96L92.04-31.96L92.04-31.96Q90.37-31.96 89.39-31.42L89.39-31.42L89.39-31.42Q88.40-30.87 87.62-29.65ZM141.78 1.36L141.78 1.36L141.78 1.36Q133.55 1.36 133.55-5.03L133.55-5.03L133.55-5.03Q133.62-6.80 134.16-9.79L134.16-9.79L135.39-16.05L135.39-16.05Q137.22-24.89 137.22-26.86L137.22-26.86L137.22-26.86Q137.22-30.80 134.91-30.80L134.91-30.80L134.91-30.80Q131.04-30.80 129.00-20.67L129.00-20.67L124.98 0L111.32 1.36L118.39-34.75L129.54-36.04L128.45-29.38L128.45-29.38Q131.65-36.04 141.44-36.04L141.44-36.04L141.44-36.04Q146.20-36.04 148.21-34.03L148.21-34.03L148.21-34.03Q150.21-32.03 150.21-27.54L150.21-27.54L150.21-27.54Q150.21-23.32 148.04-13.46L148.04-13.46L148.04-13.46Q147.02-9.04 147.02-7.38L147.02-7.38L147.02-7.38Q147.02-5.71 147.93-4.76L147.93-4.76L147.93-4.76Q148.85-3.81 150.21-3.67L150.21-3.67L150.21-3.67Q149.53-1.36 147.19 0L147.19 0L147.19 0Q144.84 1.36 141.78 1.36ZM160.48-28.42L160.48-28.42L160.48-28.42Q162.79-31.69 166.29-33.86L166.29-33.86L166.29-33.86Q169.80-36.04 174.08-36.04L174.08-36.04L174.08-36.04Q178.36-36.04 180.40-34.68L180.40-34.68L193.73-36.04L189.11-9.93L189.11-9.93Q186.73 3.40 181.70 8.64L181.70 8.64L181.70 8.64Q176.87 13.60 167.48 13.60L167.48 13.60L167.48 13.60Q160.34 13.60 156.26 11.36L156.26 11.36L156.26 11.36Q152.18 9.11 152.18 5.37L152.18 5.37L152.18 5.37Q152.18 2.58 154.29 0.99L154.29 0.99L154.29 0.99Q156.40-0.61 159.66-0.61L159.66-0.61L159.66-0.61Q162.52-0.61 164.70 0.68L164.70 0.68L164.70 0.68Q165.99 1.36 166.60 2.31L166.60 2.31L166.60 2.31Q165.04 3.67 165.04 5.92L165.04 5.92L165.04 5.92Q165.04 8.84 167.76 8.84L167.76 8.84L167.76 8.84Q172.31 8.84 174.90-1.90L174.90-1.90L174.90-1.90Q175.64-4.83 176.26-7.75L176.26-7.75L176.26-7.75Q173.20-4.01 166.26-4.01L166.26-4.01L166.26-4.01Q161.43-4.01 158.64-6.32L158.64-6.32L158.64-6.32Q155.86-8.64 155.86-14.08L155.86-14.08L155.86-14.08Q155.86-17.48 157.01-21.32L157.01-21.32L157.01-21.32Q158.17-25.16 160.48-28.42ZM169.32-13.87L169.32-13.87L169.32-13.87Q169.32-9.25 171.70-9.25L171.70-9.25L171.70-9.25Q173.33-9.25 174.90-11.02L174.90-11.02L174.90-11.02Q176.12-12.44 176.60-14.55L176.60-14.55L180.06-32.03L180.06-32.03Q179.72-32.10 179.38-32.23L179.38-32.23L179.38-32.23Q178.70-32.50 177.82-32.50L177.82-32.50L177.82-32.50Q173.67-32.50 171.22-25.70L171.22-25.70L171.22-25.70Q169.32-20.40 169.32-13.87ZM211.21 1.36L211.21 1.36L211.21 1.36Q196.25 1.36 196.25-12.72L196.25-12.72L196.25-12.72Q196.25-22.71 201.76-29.17L201.76-29.17L201.76-29.17Q207.60-36.04 217.74-36.04L217.74-36.04L217.74-36.04Q225.08-36.04 228.82-32.64L228.82-32.64L228.82-32.64Q232.56-29.24 232.56-22.10L232.56-22.10L232.56-22.10Q232.56-11.22 226.71-4.90L226.71-4.90L226.71-4.90Q221 1.36 211.21 1.36ZM212.98-28.22L212.98-28.22L212.98-28.22Q212.16-26.38 211.51-23.63L211.51-23.63L211.51-23.63Q210.87-20.88 210.05-16.52L210.05-16.52L210.05-16.52Q209.24-12.17 209.24-6.80L209.24-6.80L209.24-6.80Q209.24-5.03 209.81-3.88L209.81-3.88L209.81-3.88Q210.39-2.72 211.96-2.72L211.96-2.72L211.96-2.72Q213.52-2.72 214.51-3.47L214.51-3.47L214.51-3.47Q215.49-4.22 216.24-5.98L216.24-5.98L216.24-5.98Q217.60-9.11 218.69-14.93L218.69-14.93L218.69-14.93Q219.78-20.74 219.88-23.26L219.88-23.26L219.88-23.26Q219.98-25.77 219.98-27.64L219.98-27.64L219.98-27.64Q219.98-29.51 219.44-30.74L219.44-30.74L219.44-30.74Q218.89-31.96 217.36-31.96L217.36-31.96L217.36-31.96Q215.83-31.96 214.81-31.01L214.81-31.01L214.81-31.01Q213.79-30.06 212.98-28.22ZM239.09-11.02L239.09-11.02L239.09-11.02Q236.91-12.58 236.91-15.57L236.91-15.57L236.91-15.57Q236.91-17.20 237.73-18.53L237.73-18.53L237.73-18.53Q238.54-19.86 240.18-20.06L240.18-20.06L253.57-20.06L253.57-20.06Q255.82-20.06 256.50-21.42L256.50-21.42L256.50-21.42Q257.58-20.81 258.06-19.52L258.06-19.52L258.06-19.52Q258.54-18.22 258.54-16.86L258.54-16.86L258.54-16.86Q258.54-15.50 257.48-14.18L257.48-14.18L257.48-14.18Q256.43-12.85 254.86-12.72L254.86-12.72L242.42-12.72L242.42-12.72Q240.99-12.72 240.31-12.27L240.31-12.27L240.31-12.27Q239.63-11.83 239.09-11.02ZM264.25-16.59L264.25-16.59L264.25-16.59Q264.25-29.44 270.91-37.54L270.91-37.54L270.91-37.54Q277.98-46.31 290.29-46.31L290.29-46.31L290.29-46.31Q299.20-46.31 303.69-41.99L303.69-41.99L303.69-41.99Q308.18-37.67 308.18-28.56L308.18-28.56L308.18-28.56Q308.18-14.69 301.10-6.60L301.10-6.60L301.10-6.60Q294.10 1.36 282.34 1.36L282.34 1.36L282.34 1.36Q273.16 1.36 268.70-3.23L268.70-3.23L268.70-3.23Q264.25-7.82 264.25-16.59ZM282.13-30.67L282.13-30.67L282.13-30.67Q279.07-18.43 279.07-8.77L279.07-8.77L279.07-8.77Q279.07-6.46 279.85-4.96L279.85-4.96L279.85-4.96Q280.64-3.47 282.71-3.47L282.71-3.47L282.71-3.47Q284.78-3.47 286.08-4.45L286.08-4.45L286.08-4.45Q287.37-5.44 288.39-7.68L288.39-7.68L288.39-7.68Q290.02-11.36 291.55-19.14L291.55-19.14L291.55-19.14Q293.08-26.93 293.22-30.16L293.22-30.16L293.22-30.16Q293.35-33.39 293.35-35.84L293.35-35.84L293.35-35.84Q293.35-38.28 292.60-39.85L292.60-39.85L292.60-39.85Q291.86-41.41 289.85-41.41L289.85-41.41L289.85-41.41Q287.84-41.41 286.48-40.19L286.48-40.19L286.48-40.19Q283.97-37.88 282.13-30.67ZM332.79-19.11L332.79-19.11L332.79-19.11Q335.24-23.46 335.24-27.88L335.24-27.88L335.24-27.88Q335.24-30.80 333.13-30.80L333.13-30.80L333.13-30.80Q331.50-30.80 329.80-28.02L329.80-28.02L329.80-28.02Q328.03-25.23 327.49-21.62L327.49-21.62L323.95 0L309.88 1.36L316.81-34.68L328.03-36.04L326.81-29.17L326.81-29.17Q330.14-36.04 337.62-36.04L337.62-36.04L337.62-36.04Q341.56-36.04 343.71-34L343.71-34L343.71-34Q345.85-31.96 345.85-27.78L345.85-27.78L345.85-27.78Q345.85-23.60 343.09-20.94L343.09-20.94L343.09-20.94Q340.34-18.29 335.65-18.29L335.65-18.29L335.65-18.29Q333.61-18.29 332.79-19.11ZM395.90 1.36L395.90 1.36L395.90 1.36Q387.67 1.36 387.67-5.03L387.67-5.03L387.67-5.03Q387.67-7.82 388.86-13.23L388.86-13.23L388.86-13.23Q390.05-18.63 390.46-20.81L390.46-20.81L390.46-20.81Q391.41-25.77 391.41-27.34L391.41-27.34L391.41-27.34Q391.41-30.80 388.82-30.80L388.82-30.80L388.82-30.80Q387.12-30.80 385.49-28.46L385.49-28.46L385.49-28.46Q383.86-26.11 383.11-21.42L383.11-21.42L378.90 0L365.64 1.36L369.31-17.14L369.31-17.14Q369.92-20.20 370.46-23.66L370.46-23.66L370.46-23.66Q371.01-27.13 371.01-27.68L371.01-27.68L371.01-27.68Q371.01-30.80 368.70-30.80L368.70-30.80L368.70-30.80Q367.13-30.80 365.43-28.49L365.43-28.49L365.43-28.49Q363.73-26.18 362.78-21.42L362.78-21.42L358.63 0L345.24 1.36L352.38-34.68L363.46-36.04L362.30-29.17L362.30-29.17Q364.07-32.84 367.34-34.44L367.34-34.44L367.34-34.44Q370.60-36.04 375.70-36.04L375.70-36.04L375.70-36.04Q378.62-36.04 380.53-34.61L380.53-34.61L380.53-34.61Q382.43-33.18 383.04-30.87L383.04-30.87L383.04-30.87Q384.20-33.25 387.16-34.65L387.16-34.65L387.16-34.65Q390.12-36.04 393.75-36.04L393.75-36.04L393.75-36.04Q397.39-36.04 399.19-35.26L399.19-35.26L399.19-35.26Q401.00-34.48 402.08-33.18L402.08-33.18L402.08-33.18Q403.92-30.80 403.92-26.45L403.92-26.45L403.92-26.45Q403.92-22.17 402.08-13.26L402.08-13.26L402.08-13.26Q401.13-8.91 401.13-7.31L401.13-7.31L401.13-7.31Q401.13-5.71 402.05-4.76L402.05-4.76L402.05-4.76Q402.97-3.81 404.33-3.67L404.33-3.67L404.33-3.67Q403.65-1.36 401.30 0L401.30 0L401.30 0Q398.96 1.36 395.90 1.36Z" fill="none" stroke="#e9ffd4" stroke-width="1"></path></g></g><style>text {
  font-size: 64px;
  font-family: Arial Black;
  dominant-baseline: central;
  text-anchor: middle;
}</style></svg>